<svg xmlns="http://www.w3.org/2000/svg" viewBox="0 0 200 199.97"><g data-name="Capa 2"><g data-name="Capa 1"><path d="M100 200A100 100 0 1 0 0 100a100.19 100.19 0 0 0 100 100" style="fill:#74af27"/><path d="M82.84 61.71C85 55.32 90.56 49.9 100.42 49.9h44.1l-1 3.1c-1.17 3.7-7 16-19.74 16H80.3Zm36.53 33.63H94.08l5.36-16.8H77.22l-21.87 68.08h22.24l11.13-34.63h24.87l5.78-16.65zM109.94 135a11.38 11.38 0 0 0 11.6 11.6 11.55 11.55 0 0 0 11.78-11.6 11.72 11.72 0 0 0-11.78-11.81 11.54 11.54 0 0 0-11.6 11.81" style="fill:#fff"/></g></g></svg>